<svg width="798" height="800" viewBox="0 0 798 800" fill="none" xmlns="http://www.w3.org/2000/svg">
<path d="M83.6621 598.998L373.511 760.509C388.572 768.901 406.895 768.942 421.994 760.616L715.145 598.956C731.095 590.16 741 573.387 741 555.172V257.139C741 239.488 731.693 223.145 716.513 214.138L423.369 40.2157C407.57 30.8421 387.903 30.8872 372.147 40.333L82.2907 214.104C67.2217 223.138 58 239.418 58 256.988V555.321C58 573.456 67.8201 590.17 83.6621 598.998Z" fill="#EBA937"/>
<path d="M424.021 242.437C434.394 233.231 440.703 228.981 453.592 224.417" stroke="#333333" stroke-width="12"/>
<path d="M450.24 226.663C467.895 205.528 477.962 199.048 495.948 188.44" stroke="#333333" stroke-width="12"/>
<circle cx="496.393" cy="188.74" r="6.21194" transform="rotate(-0.236472 496.393 188.74)" fill="#333333" stroke="#333333"/>
<path d="M375.92 242.636C365.471 233.516 359.127 229.318 346.201 224.86" stroke="#333333" stroke-width="12"/>
<path d="M349.562 227.088C331.734 206.099 321.613 199.702 303.541 189.243" stroke="#333333" stroke-width="12"/>
<circle r="6.21194" transform="matrix(-0.999991 0.0041272 0.0041272 0.999991 303.984 189.858)" fill="#333333" stroke="#333333"/>
<path d="M348.733 567.161C367.582 595.571 379.031 606.218 400.953 616.167C424.081 603.99 435.283 593.385 451.649 566.737C411.032 576.09 388.317 576.611 348.733 567.161Z" fill="#333333" stroke="#333333" stroke-width="2"/>
<path d="M329.393 488.935C329.556 507.96 331.035 517.164 335.721 531.418C390.154 546.49 418.313 544.929 465.484 530.882C469.844 515.048 471.246 505.771 471.461 488.348C421.788 500.922 392.171 503.473 329.393 488.935Z" fill="#333333" stroke="#333333" stroke-width="2"/>
<path d="M363.358 315.96C333.898 345.964 338.798 365.65 353.643 401.578C393.024 389.425 412.836 391.348 444.813 401.202C460.46 364.437 463.08 344.873 434.392 315.667C409.355 326.237 394.111 327.497 363.358 315.96Z" fill="#333333" stroke="#333333" stroke-width="2"/>
<path d="M356.045 305.923C392.426 311.925 382.763 274.49 362.56 258.352C387.162 227.812 414.138 228.364 434.154 258.057C410.104 286.584 413.391 314.778 442.74 305.565L433.303 322.943L393.078 334.296L365.606 318.748L356.045 305.923Z" fill="#333333" stroke="#333333" stroke-width="2"/>
<path d="M457.201 421.287C414.344 435.787 389.233 435.584 342.54 421.76C336.189 435.846 334.492 442.772 333.165 454.24C388.338 468.972 418.021 469.787 467.403 453.686C465.471 440.463 463.315 433.348 457.201 421.287Z" fill="#333333" stroke="#333333" stroke-width="2"/>
<path d="M361.951 344.338L223.356 294.229L154.568 290.15" stroke="#333333" stroke-width="12"/>
<circle cx="147.85" cy="292.372" r="7.18657" transform="rotate(0.135882 147.85 292.372)" stroke="#333333" stroke-width="8"/>
<circle cx="106.442" cy="300.104" r="7.18657" transform="rotate(0.135882 106.442 300.104)" stroke="#333333" stroke-width="8"/>
<circle cx="143.286" cy="330.395" r="7.18657" transform="rotate(0.135882 143.286 330.395)" stroke="#333333" stroke-width="8"/>
<circle cx="190.288" cy="322.676" r="7.18657" transform="rotate(0.135882 190.288 322.676)" stroke="#333333" stroke-width="8"/>
<circle cx="192.437" cy="359.597" r="7.18657" transform="rotate(0.135882 192.437 359.597)" stroke="#333333" stroke-width="8"/>
<circle cx="212.462" cy="406.628" r="7.18657" transform="rotate(0.135882 212.462 406.628)" stroke="#333333" stroke-width="8"/>
<circle cx="181.124" cy="413.266" r="7.18657" transform="rotate(0.135882 181.124 413.266)" stroke="#333333" stroke-width="8"/>
<path d="M362.422 381.255L303.022 428.097L244.256 443.619L186.704 418.872" stroke="#333333" stroke-width="12"/>
<circle cx="69.497" cy="312.322" r="7.18657" transform="rotate(0.135882 69.497 312.322)" stroke="#333333" stroke-width="8"/>
<path d="M360.236 359.995L156.01 389.714L72.7747 345.33L69.4824 318.474" stroke="#333333" stroke-width="12"/>
<path d="M358.575 352.72L278.616 341.903L227.203 322.764L196.44 322.691" stroke="#333333" stroke-width="12"/>
<path d="M279.174 342.463L244.464 355.805L201.946 359.619" stroke="#333333" stroke-width="12"/>
<path d="M95.1214 356.569L115.308 335.363L108.099 309.057" stroke="#333333" stroke-width="12"/>
<path d="M132.551 375.675C133.898 373.889 143.584 361.905 148.259 356.136L145.501 339.909" stroke="#333333" stroke-width="12"/>
<path d="M215.799 414.467L228.05 437.428" stroke="#333333" stroke-width="12"/>
<path d="M436.438 342.977L575.358 293.775L644.171 290.147" stroke="#333333" stroke-width="12"/>
<circle r="7.18657" transform="matrix(-0.999991 -0.00417004 -0.00417004 0.999991 650.873 292.412)" stroke="#333333" stroke-width="8"/>
<circle r="7.18657" transform="matrix(-0.999991 -0.00417004 -0.00417004 0.999991 692.231 300.415)" stroke="#333333" stroke-width="8"/>
<circle r="7.18657" transform="matrix(-0.999991 -0.00417004 -0.00417004 0.999991 655.189 330.465)" stroke="#333333" stroke-width="8"/>
<circle r="7.18657" transform="matrix(-0.999991 -0.00417004 -0.00417004 0.999991 608.239 322.438)" stroke="#333333" stroke-width="8"/>
<circle r="7.18657" transform="matrix(-0.999991 -0.00417004 -0.00417004 0.999991 605.848 359.344)" stroke="#333333" stroke-width="8"/>
<circle r="7.18657" transform="matrix(-0.999991 -0.00417004 -0.00417004 0.999991 585.516 406.244)" stroke="#333333" stroke-width="8"/>
<circle r="7.18657" transform="matrix(-0.999991 -0.00417004 -0.00417004 0.999991 616.81 413.086)" stroke="#333333" stroke-width="8"/>
<path d="M435.725 379.89L494.817 427.12L553.481 443.026L611.194 418.656" stroke="#333333" stroke-width="12"/>
<circle r="7.18657" transform="matrix(-0.999991 -0.00417004 -0.00417004 0.999991 729.095 312.874)" stroke="#333333" stroke-width="8"/>
<path d="M438.051 358.645L642.078 389.7L725.601 345.861L729.069 319.027" stroke="#333333" stroke-width="12"/>
<path d="M439.759 351.381L519.787 341.087L571.324 322.285L602.086 322.413" stroke="#333333" stroke-width="12"/>
<path d="M519.225 341.644L553.847 355.212L596.339 359.305" stroke="#333333" stroke-width="12"/>
<path d="M703.182 356.954L683.135 335.615L690.515 309.358" stroke="#333333" stroke-width="12"/>
<path d="M665.628 375.814C664.293 374.019 654.685 361.972 650.048 356.173L652.912 339.964" stroke="#333333" stroke-width="12"/>
<path d="M582.128 414.06L569.727 436.941" stroke="#333333" stroke-width="12"/>
<path d="M351.5 400.698C303.823 477.264 326.64 584.17 400.72 618.276C466.555 587.145 500.319 488.284 448.823 400.698C462.551 364.926 465.093 345.566 439.314 315.12C463.047 286.072 464.248 265.052 437.077 254.713C417.897 223.672 375.116 227.382 362.127 254.713C335.132 264.498 337.792 285.906 358.771 315.12C331.531 345.934 335.339 366.808 351.5 400.698Z" stroke="#333333" stroke-width="12"/>
</svg>
