<svg width="2862" height="800" viewBox="0 0 2862 800" fill="none" xmlns="http://www.w3.org/2000/svg">
<path d="M74.6621 598.998L364.511 760.509C379.572 768.901 397.895 768.942 412.994 760.616L706.145 598.956C722.095 590.16 732 573.387 732 555.172V257.139C732 239.488 722.693 223.145 707.513 214.138L414.369 40.2157C398.57 30.8421 378.903 30.8872 363.147 40.333L73.2907 214.104C58.2217 223.138 49 239.418 49 256.988V555.321C49 573.456 58.8201 590.17 74.6621 598.998Z" fill="#EBA937"/>
<path d="M415.021 242.437C425.394 233.231 431.703 228.981 444.592 224.417" stroke="#333333" stroke-width="12"/>
<path d="M441.24 226.663C458.895 205.528 468.962 199.048 486.948 188.44" stroke="#333333" stroke-width="12"/>
<circle cx="487.393" cy="188.74" r="6.21194" transform="rotate(-0.236472 487.393 188.74)" fill="#333333" stroke="#333333"/>
<path d="M366.92 242.636C356.471 233.516 350.127 229.318 337.201 224.86" stroke="#333333" stroke-width="12"/>
<path d="M340.562 227.088C322.734 206.099 312.613 199.702 294.541 189.243" stroke="#333333" stroke-width="12"/>
<circle r="6.21194" transform="matrix(-0.999991 0.0041272 0.0041272 0.999991 294.984 189.858)" fill="#333333" stroke="#333333"/>
<path d="M339.733 567.161C358.582 595.571 370.031 606.218 391.953 616.167C415.081 603.99 426.283 593.385 442.649 566.737C402.032 576.09 379.317 576.611 339.733 567.161Z" fill="#333333" stroke="#333333" stroke-width="2"/>
<path d="M320.393 488.935C320.556 507.96 322.035 517.164 326.721 531.418C381.154 546.49 409.313 544.929 456.484 530.882C460.844 515.048 462.246 505.771 462.461 488.348C412.788 500.922 383.171 503.473 320.393 488.935Z" fill="#333333" stroke="#333333" stroke-width="2"/>
<path d="M354.358 315.96C324.898 345.964 329.798 365.65 344.643 401.578C384.024 389.425 403.836 391.348 435.813 401.202C451.46 364.437 454.08 344.873 425.392 315.667C400.355 326.237 385.111 327.497 354.358 315.96Z" fill="#333333" stroke="#333333" stroke-width="2"/>
<path d="M347.045 305.923C383.426 311.925 373.763 274.49 353.56 258.352C378.162 227.812 405.138 228.364 425.154 258.057C401.104 286.584 404.391 314.778 433.74 305.565L424.303 322.943L384.078 334.296L356.606 318.748L347.045 305.923Z" fill="#333333" stroke="#333333" stroke-width="2"/>
<path d="M448.201 421.287C405.344 435.787 380.233 435.584 333.54 421.76C327.189 435.846 325.492 442.772 324.165 454.24C379.338 468.972 409.021 469.787 458.403 453.686C456.471 440.463 454.315 433.348 448.201 421.287Z" fill="#333333" stroke="#333333" stroke-width="2"/>
<path d="M352.951 344.338L214.356 294.229L145.568 290.15" stroke="#333333" stroke-width="12"/>
<circle cx="138.85" cy="292.372" r="7.18657" transform="rotate(0.135882 138.85 292.372)" stroke="#333333" stroke-width="8"/>
<circle cx="97.4416" cy="300.104" r="7.18657" transform="rotate(0.135882 97.4416 300.104)" stroke="#333333" stroke-width="8"/>
<circle cx="134.286" cy="330.395" r="7.18657" transform="rotate(0.135882 134.286 330.395)" stroke="#333333" stroke-width="8"/>
<circle cx="181.288" cy="322.676" r="7.18657" transform="rotate(0.135882 181.288 322.676)" stroke="#333333" stroke-width="8"/>
<circle cx="183.437" cy="359.597" r="7.18657" transform="rotate(0.135882 183.437 359.597)" stroke="#333333" stroke-width="8"/>
<circle cx="203.462" cy="406.628" r="7.18657" transform="rotate(0.135882 203.462 406.628)" stroke="#333333" stroke-width="8"/>
<circle cx="172.124" cy="413.266" r="7.18657" transform="rotate(0.135882 172.124 413.266)" stroke="#333333" stroke-width="8"/>
<path d="M353.422 381.255L294.022 428.097L235.256 443.619L177.704 418.872" stroke="#333333" stroke-width="12"/>
<circle cx="60.497" cy="312.322" r="7.18657" transform="rotate(0.135882 60.497 312.322)" stroke="#333333" stroke-width="8"/>
<path d="M351.236 359.995L147.01 389.714L63.7747 345.33L60.4824 318.474" stroke="#333333" stroke-width="12"/>
<path d="M349.575 352.72L269.616 341.903L218.203 322.764L187.44 322.691" stroke="#333333" stroke-width="12"/>
<path d="M270.174 342.463L235.464 355.805L192.946 359.619" stroke="#333333" stroke-width="12"/>
<path d="M86.1214 356.569L106.308 335.363L99.0987 309.057" stroke="#333333" stroke-width="12"/>
<path d="M123.551 375.675C124.898 373.889 134.584 361.905 139.259 356.136L136.501 339.909" stroke="#333333" stroke-width="12"/>
<path d="M206.799 414.467L219.05 437.428" stroke="#333333" stroke-width="12"/>
<path d="M427.438 342.977L566.358 293.775L635.171 290.147" stroke="#333333" stroke-width="12"/>
<circle r="7.18657" transform="matrix(-0.999991 -0.00417004 -0.00417004 0.999991 641.873 292.412)" stroke="#333333" stroke-width="8"/>
<circle r="7.18657" transform="matrix(-0.999991 -0.00417004 -0.00417004 0.999991 683.231 300.415)" stroke="#333333" stroke-width="8"/>
<circle r="7.18657" transform="matrix(-0.999991 -0.00417004 -0.00417004 0.999991 646.189 330.465)" stroke="#333333" stroke-width="8"/>
<circle r="7.18657" transform="matrix(-0.999991 -0.00417004 -0.00417004 0.999991 599.239 322.438)" stroke="#333333" stroke-width="8"/>
<circle r="7.18657" transform="matrix(-0.999991 -0.00417004 -0.00417004 0.999991 596.848 359.344)" stroke="#333333" stroke-width="8"/>
<circle r="7.18657" transform="matrix(-0.999991 -0.00417004 -0.00417004 0.999991 576.516 406.244)" stroke="#333333" stroke-width="8"/>
<circle r="7.18657" transform="matrix(-0.999991 -0.00417004 -0.00417004 0.999991 607.81 413.086)" stroke="#333333" stroke-width="8"/>
<path d="M426.725 379.89L485.817 427.12L544.481 443.026L602.194 418.656" stroke="#333333" stroke-width="12"/>
<circle r="7.18657" transform="matrix(-0.999991 -0.00417004 -0.00417004 0.999991 720.095 312.874)" stroke="#333333" stroke-width="8"/>
<path d="M429.051 358.645L633.078 389.7L716.601 345.861L720.069 319.027" stroke="#333333" stroke-width="12"/>
<path d="M430.759 351.381L510.787 341.087L562.324 322.285L593.086 322.413" stroke="#333333" stroke-width="12"/>
<path d="M510.225 341.644L544.847 355.212L587.339 359.305" stroke="#333333" stroke-width="12"/>
<path d="M694.182 356.954L674.135 335.615L681.515 309.358" stroke="#333333" stroke-width="12"/>
<path d="M656.628 375.814C655.293 374.019 645.685 361.972 641.048 356.173L643.912 339.964" stroke="#333333" stroke-width="12"/>
<path d="M573.128 414.06L560.727 436.941" stroke="#333333" stroke-width="12"/>
<path d="M342.5 400.698C294.823 477.264 317.64 584.17 391.72 618.276C457.555 587.145 491.319 488.284 439.823 400.698C453.551 364.926 456.093 345.566 430.314 315.12C454.047 286.072 455.248 265.052 428.077 254.713C408.897 223.672 366.116 227.382 353.127 254.713C326.132 264.498 328.792 285.906 349.771 315.12C322.531 345.934 326.339 366.808 342.5 400.698Z" stroke="#333333" stroke-width="12"/>
<path d="M838.092 285.818V504H791.963V285.818H838.092ZM920.576 409.398V504H875.193V340.364H918.446V369.234H920.363C923.985 359.717 930.058 352.189 938.581 346.649C947.103 341.038 957.437 338.233 969.582 338.233C980.946 338.233 990.853 340.719 999.305 345.69C1007.76 350.662 1014.33 357.764 1019.01 366.997C1023.7 376.159 1026.05 387.097 1026.05 399.81V504H980.662V407.906C980.733 397.892 978.176 390.08 972.991 384.469C967.806 378.787 960.669 375.946 951.578 375.946C945.47 375.946 940.072 377.26 935.385 379.888C930.768 382.516 927.146 386.351 924.518 391.393C921.961 396.365 920.647 402.366 920.576 409.398ZM1148.85 340.364V374.455H1050.31V340.364H1148.85ZM1072.68 301.159H1118.06V453.716C1118.06 457.906 1118.7 461.173 1119.98 463.517C1121.26 465.79 1123.04 467.388 1125.31 468.311C1127.65 469.234 1130.35 469.696 1133.4 469.696C1135.54 469.696 1137.67 469.518 1139.8 469.163C1141.93 468.737 1143.56 468.418 1144.7 468.205L1151.84 501.976C1149.56 502.686 1146.37 503.503 1142.25 504.426C1138.13 505.42 1133.12 506.024 1127.23 506.237C1116.29 506.663 1106.7 505.207 1098.46 501.869C1090.29 498.531 1083.94 493.347 1079.39 486.315C1074.85 479.284 1072.61 470.406 1072.68 459.682V301.159ZM1251.23 507.196C1234.4 507.196 1219.91 503.787 1207.77 496.969C1195.69 490.08 1186.39 480.349 1179.85 467.778C1173.32 455.136 1170.05 440.186 1170.05 422.928C1170.05 406.095 1173.32 391.322 1179.85 378.609C1186.39 365.896 1195.59 355.989 1207.45 348.886C1219.38 341.784 1233.37 338.233 1249.42 338.233C1260.22 338.233 1270.27 339.973 1279.57 343.453C1288.94 346.862 1297.11 352.011 1304.07 358.901C1311.1 365.79 1316.57 374.455 1320.48 384.895C1324.38 395.264 1326.34 407.409 1326.34 421.33V433.794H1188.16V405.669H1283.62C1283.62 399.135 1282.2 393.347 1279.36 388.304C1276.52 383.261 1272.57 379.32 1267.53 376.479C1262.56 373.567 1256.77 372.111 1250.17 372.111C1243.28 372.111 1237.17 373.709 1231.84 376.905C1226.59 380.03 1222.47 384.256 1219.48 389.582C1216.5 394.838 1214.97 400.697 1214.9 407.161V433.901C1214.9 441.997 1216.39 448.993 1219.38 454.888C1222.43 460.783 1226.73 465.328 1232.27 468.524C1237.81 471.72 1244.38 473.318 1251.98 473.318C1257.02 473.318 1261.64 472.608 1265.83 471.188C1270.02 469.767 1273.6 467.636 1276.59 464.795C1279.57 461.955 1281.84 458.474 1283.4 454.355L1325.38 457.125C1323.25 467.21 1318.88 476.017 1312.28 483.545C1305.74 491.003 1297.29 496.827 1286.92 501.017C1276.62 505.136 1264.73 507.196 1251.23 507.196ZM1401.34 285.818V504H1355.95V285.818H1401.34ZM1483.08 285.818V504H1437.69V285.818H1483.08ZM1519.43 504V340.364H1564.81V504H1519.43ZM1542.23 319.27C1535.48 319.27 1529.69 317.033 1524.86 312.558C1520.11 308.013 1517.73 302.58 1517.73 296.259C1517.73 290.009 1520.11 284.646 1524.86 280.172C1529.69 275.626 1535.48 273.354 1542.23 273.354C1548.98 273.354 1554.73 275.626 1559.49 280.172C1564.32 284.646 1566.73 290.009 1566.73 296.259C1566.73 302.58 1564.32 308.013 1559.49 312.558C1554.73 317.033 1548.98 319.27 1542.23 319.27ZM1602.02 504V285.818H1689.38C1705.43 285.818 1718.82 288.197 1729.54 292.956C1740.27 297.714 1748.33 304.32 1753.73 312.771C1759.12 321.152 1761.82 330.811 1761.82 341.749C1761.82 350.271 1760.12 357.764 1756.71 364.227C1753.3 370.619 1748.61 375.875 1742.65 379.994C1736.75 384.043 1730 386.919 1722.41 388.624V390.754C1730.71 391.109 1738.49 393.453 1745.74 397.786C1753.05 402.118 1758.98 408.19 1763.53 416.003C1768.07 423.744 1770.35 432.977 1770.35 443.702C1770.35 455.278 1767.47 465.612 1761.72 474.703C1756.03 483.723 1747.62 490.861 1736.47 496.116C1725.32 501.372 1711.57 504 1695.24 504H1602.02ZM1648.15 466.287H1685.76C1698.61 466.287 1707.99 463.837 1713.88 458.936C1719.78 453.964 1722.72 447.359 1722.72 439.121C1722.72 433.084 1721.27 427.757 1718.36 423.141C1715.44 418.524 1711.29 414.902 1705.89 412.274C1700.57 409.646 1694.21 408.332 1686.82 408.332H1648.15V466.287ZM1648.15 377.118H1682.35C1688.67 377.118 1694.28 376.017 1699.18 373.815C1704.15 371.543 1708.06 368.347 1710.9 364.227C1713.81 360.108 1715.27 355.172 1715.27 349.419C1715.27 341.536 1712.46 335.179 1706.85 330.349C1701.31 325.52 1693.43 323.105 1683.2 323.105H1648.15V377.118ZM1874.08 507.196C1857.25 507.196 1842.76 503.787 1830.62 496.969C1818.54 490.08 1809.24 480.349 1802.71 467.778C1796.17 455.136 1792.9 440.186 1792.9 422.928C1792.9 406.095 1796.17 391.322 1802.71 378.609C1809.24 365.896 1818.44 355.989 1830.3 348.886C1842.23 341.784 1856.22 338.233 1872.27 338.233C1883.07 338.233 1893.12 339.973 1902.42 343.453C1911.8 346.862 1919.96 352.011 1926.92 358.901C1933.96 365.79 1939.42 374.455 1943.33 384.895C1947.24 395.264 1949.19 407.409 1949.19 421.33V433.794H1811.01V405.669H1906.47C1906.47 399.135 1905.05 393.347 1902.21 388.304C1899.37 383.261 1895.43 379.32 1890.38 376.479C1885.41 373.567 1879.62 372.111 1873.02 372.111C1866.13 372.111 1860.02 373.709 1854.69 376.905C1849.44 380.03 1845.32 384.256 1842.34 389.582C1839.35 394.838 1837.83 400.697 1837.75 407.161V433.901C1837.75 441.997 1839.25 448.993 1842.23 454.888C1845.28 460.783 1849.58 465.328 1855.12 468.524C1860.66 471.72 1867.23 473.318 1874.83 473.318C1879.87 473.318 1884.49 472.608 1888.68 471.188C1892.87 469.767 1896.46 467.636 1899.44 464.795C1902.42 461.955 1904.69 458.474 1906.26 454.355L1948.23 457.125C1946.1 467.21 1941.73 476.017 1935.13 483.545C1928.59 491.003 1920.14 496.827 1909.77 501.017C1899.47 505.136 1887.58 507.196 1874.08 507.196ZM2053.38 507.196C2036.55 507.196 2022.06 503.787 2009.91 496.969C1997.84 490.08 1988.54 480.349 1982 467.778C1975.47 455.136 1972.2 440.186 1972.2 422.928C1972.2 406.095 1975.47 391.322 1982 378.609C1988.54 365.896 1997.73 355.989 2009.59 348.886C2021.53 341.784 2035.52 338.233 2051.57 338.233C2062.36 338.233 2072.41 339.973 2081.72 343.453C2091.09 346.862 2099.26 352.011 2106.22 358.901C2113.25 365.79 2118.72 374.455 2122.63 384.895C2126.53 395.264 2128.49 407.409 2128.49 421.33V433.794H1990.31V405.669H2085.77C2085.77 399.135 2084.35 393.347 2081.5 388.304C2078.66 383.261 2074.72 379.32 2069.68 376.479C2064.71 373.567 2058.92 372.111 2052.31 372.111C2045.43 372.111 2039.32 373.709 2033.99 376.905C2028.74 380.03 2024.62 384.256 2021.63 389.582C2018.65 394.838 2017.12 400.697 2017.05 407.161V433.901C2017.05 441.997 2018.54 448.993 2021.53 454.888C2024.58 460.783 2028.88 465.328 2034.42 468.524C2039.96 471.72 2046.53 473.318 2054.13 473.318C2059.17 473.318 2063.78 472.608 2067.98 471.188C2072.17 469.767 2075.75 467.636 2078.74 464.795C2081.72 461.955 2083.99 458.474 2085.55 454.355L2127.53 457.125C2125.4 467.21 2121.03 476.017 2114.42 483.545C2107.89 491.003 2099.44 496.827 2089.07 501.017C2078.77 505.136 2066.87 507.196 2053.38 507.196ZM2158.96 504V285.818H2205.08V375.839H2298.73V285.818H2344.75V504H2298.73V413.872H2205.08V504H2158.96ZM2381.93 504V340.364H2427.31V504H2381.93ZM2404.73 319.27C2397.98 319.27 2392.19 317.033 2387.36 312.558C2382.61 308.013 2380.23 302.58 2380.23 296.259C2380.23 290.009 2382.61 284.646 2387.36 280.172C2392.19 275.626 2397.98 273.354 2404.73 273.354C2411.48 273.354 2417.23 275.626 2421.99 280.172C2426.82 284.646 2429.23 290.009 2429.23 296.259C2429.23 302.58 2426.82 308.013 2421.99 312.558C2417.23 317.033 2411.48 319.27 2404.73 319.27ZM2616.23 340.364L2559.02 504H2507.88L2450.67 340.364H2498.61L2532.6 457.445H2534.3L2568.18 340.364H2616.23ZM2708.75 507.196C2691.92 507.196 2677.43 503.787 2665.29 496.969C2653.21 490.08 2643.91 480.349 2637.37 467.778C2630.84 455.136 2627.57 440.186 2627.57 422.928C2627.57 406.095 2630.84 391.322 2637.37 378.609C2643.91 365.896 2653.1 355.989 2664.97 348.886C2676.9 341.784 2690.89 338.233 2706.94 338.233C2717.74 338.233 2727.79 339.973 2737.09 343.453C2746.46 346.862 2754.63 352.011 2761.59 358.901C2768.62 365.79 2774.09 374.455 2778 384.895C2781.9 395.264 2783.86 407.409 2783.86 421.33V433.794H2645.68V405.669H2741.14C2741.14 399.135 2739.72 393.347 2736.88 388.304C2734.04 383.261 2730.09 379.32 2725.05 376.479C2720.08 373.567 2714.29 372.111 2707.69 372.111C2700.8 372.111 2694.69 373.709 2689.36 376.905C2684.11 380.03 2679.99 384.256 2677 389.582C2674.02 394.838 2672.49 400.697 2672.42 407.161V433.901C2672.42 441.997 2673.91 448.993 2676.9 454.888C2679.95 460.783 2684.25 465.328 2689.79 468.524C2695.33 471.72 2701.9 473.318 2709.5 473.318C2714.54 473.318 2719.16 472.608 2723.35 471.188C2727.54 469.767 2731.12 467.636 2734.11 464.795C2737.09 461.955 2739.36 458.474 2740.92 454.355L2782.9 457.125C2780.77 467.21 2776.4 476.017 2769.8 483.545C2763.26 491.003 2754.81 496.827 2744.44 501.017C2734.14 505.136 2722.25 507.196 2708.75 507.196Z" fill="#EBA937"/>
</svg>
